<?xml version="1.0" encoding="utf-8"?>
<!-- Generator: Adobe Illustrator 26.2.1, SVG Export Plug-In . SVG Version: 6.00 Build 0)  -->
<svg version="1.1" id="Layer_1" xmlns="http://www.w3.org/2000/svg" xmlns:xlink="http://www.w3.org/1999/xlink" x="0px" y="0px"
	 viewBox="0 0 100 100" style="enable-background:new 0 0 100 100;" xml:space="preserve">
<style type="text/css">
	.st0{opacity:0.25;fill:#FFFFFF;}
	.st1{opacity:0.5;fill:#FFFFFF;}
	.st2{fill:#FFFFFF;}
	.st3{filter:url(#Adobe_OpacityMaskFilter);}
	.st4{stroke:#000000;stroke-width:5;stroke-miterlimit:10;}
	.st5{mask:url(#Lines_00000026842943918779091420000001184290618588808332_);}
	.st6{fill:none;stroke:#FFFFFF;stroke-width:4;stroke-linecap:round;stroke-miterlimit:10;}
</style>
<path class="st0" d="M94.1,53.5c2.3,0.7,5.5,1.5,5.9,3.4c0.2,1.3-1,2.5-1.4,3c-4.8,5-28.6,9.9-36.8,12.1
	c-6.1,1.6-35.2,9.6-44.1,11.8c-1.4,0.4-2.9,0.4-4.3-0.1c-1.9-0.7-2.7-2.2-3.9-4c-2.9-4.4-6-8.8-8.8-13.3c-0.6-0.8-0.9-1.9-0.7-2.9
	c0.1-0.4,0.3-0.7,0.6-1c1.3-1.1,3.1-1.2,4.5-0.2c3.2,2.4,6.4,4.7,9.6,7.1c0.4,0.3,1,0.4,1.5,0.3c8-2.2,15.9-4.3,23.9-6.4
	c0.8-0.2,1.1-0.4,0.6-1.3c-3.7-6.3-7.4-12.6-11.1-19c-1.2-1.8-0.9-4.1,0.6-5.6c1.7-1.5,4.2-1.7,6.1-0.6c2.2,1.6,4.5,3.2,6.7,4.8
	c6.9,4.9,13.7,9.9,20.5,14.8c0.2,0.1,0.4,0.2,0.6,0.3c0.3,0.1,0.6,0,0.9-0.1c0.7-0.2,10.7-3.4,16.8-4c2-0.2,4-0.1,6,0.1
	C90,52.6,92.1,52.9,94.1,53.5z"/>
<path class="st1" d="M94.1,43.5c2.3,0.7,5.5,1.5,5.9,3.4c0.2,1.3-1,2.5-1.4,3c-4.8,5-28.6,9.9-36.8,12.1
	c-6.1,1.6-35.2,9.6-44.1,11.8c-1.4,0.4-2.9,0.4-4.3-0.1c-1.9-0.7-2.7-2.2-3.9-4c-2.9-4.4-6-8.8-8.8-13.3c-0.6-0.8-0.9-1.9-0.7-2.9
	c0.1-0.4,0.3-0.7,0.6-1c1.3-1.1,3.1-1.2,4.5-0.2c3.2,2.4,6.4,4.7,9.6,7.1c0.4,0.3,1,0.4,1.5,0.3c8-2.2,15.9-4.3,23.9-6.4
	c0.8-0.2,1.1-0.4,0.6-1.3c-3.7-6.3-7.4-12.6-11.1-19c-1.2-1.8-0.9-4.1,0.6-5.6c1.7-1.5,4.2-1.7,6.1-0.6c2.2,1.6,4.5,3.2,6.7,4.8
	c6.9,4.9,13.7,9.9,20.5,14.8c0.2,0.1,0.4,0.2,0.6,0.3c0.3,0.1,0.6,0,0.9-0.1c0.7-0.2,10.7-3.4,16.8-4c2-0.2,4-0.1,6,0.1
	C90,42.6,92.1,42.9,94.1,43.5z"/>
<path class="st2" d="M94.1,33.5c2.3,0.7,5.5,1.5,5.9,3.4c0.2,1.3-1,2.5-1.4,3c-4.8,5-28.6,9.9-36.8,12.1
	c-6.1,1.6-35.2,9.6-44.1,11.8c-1.4,0.4-2.9,0.4-4.3-0.1c-1.9-0.7-2.7-2.2-3.9-4c-2.9-4.4-6-8.8-8.8-13.3c-0.6-0.8-0.9-1.9-0.7-2.9
	c0.1-0.4,0.3-0.7,0.6-1c1.3-1.1,3.1-1.2,4.5-0.2c3.2,2.4,6.4,4.7,9.6,7.1c0.4,0.3,1,0.4,1.5,0.3c8-2.2,15.9-4.3,23.9-6.4
	c0.8-0.2,1.1-0.4,0.6-1.3c-3.7-6.3-7.4-12.6-11.1-19c-1.2-1.8-0.9-4.1,0.6-5.6c1.7-1.5,4.2-1.7,6.1-0.6c2.2,1.6,4.5,3.2,6.7,4.8
	c6.9,4.9,13.7,9.9,20.5,14.8c0.2,0.1,0.4,0.2,0.6,0.3c0.3,0.1,0.6,0,0.9-0.1c0.7-0.2,10.7-3.4,16.8-4c2-0.2,4-0.1,6,0.1
	C90,32.6,92.1,32.9,94.1,33.5z"/>
<defs>
	<filter id="Adobe_OpacityMaskFilter" filterUnits="userSpaceOnUse" x="0" y="-0.1" width="100" height="100.2">
		<feFlood  style="flood-color:white;flood-opacity:1" result="back"/>
		<feBlend  in="SourceGraphic" in2="back" mode="normal"/>
	</filter>
</defs>
<mask maskUnits="userSpaceOnUse" x="0" y="-0.1" width="100" height="100.2" id="Lines_00000106848113578197571020000010441189526399020727_">
	<g class="st3">
		<path class="st4" d="M94.1,53.5c2.3,0.7,5.5,1.5,5.9,3.4c0.2,1.3-1,2.5-1.4,3c-4.8,5-28.6,9.9-36.8,12.1
			c-6.1,1.6-35.2,9.6-44.1,11.8c-1.4,0.4-2.9,0.4-4.3-0.1c-1.9-0.7-2.7-2.2-3.9-4c-2.9-4.4-6-8.8-8.8-13.3c-0.6-0.8-0.9-1.9-0.7-2.9
			c0.1-0.4,0.3-0.7,0.6-1c1.3-1.1,3.1-1.2,4.5-0.2c3.2,2.4,6.4,4.7,9.6,7.1c0.4,0.3,1,0.4,1.5,0.3c8-2.2,15.9-4.3,23.9-6.4
			c0.8-0.2,1.1-0.4,0.6-1.3c-3.7-6.3-7.4-12.6-11.1-19c-1.2-1.8-0.9-4.1,0.6-5.6c1.7-1.5,4.2-1.7,6.1-0.6c2.2,1.6,4.5,3.2,6.7,4.8
			c6.9,4.9,13.7,9.9,20.5,14.8c0.2,0.1,0.4,0.2,0.6,0.3c0.3,0.1,0.6,0,0.9-0.1c0.7-0.2,10.7-3.4,16.8-4c2-0.2,4-0.1,6,0.1
			C90,52.6,92.1,52.9,94.1,53.5z"/>
		<path class="st4" d="M94.1,43.5c2.3,0.7,5.5,1.5,5.9,3.4c0.2,1.3-1,2.5-1.4,3c-4.8,5-28.6,9.9-36.8,12.1
			c-6.1,1.6-35.2,9.6-44.1,11.8c-1.4,0.4-2.9,0.4-4.3-0.1c-1.9-0.7-2.7-2.2-3.9-4c-2.9-4.4-6-8.8-8.8-13.3c-0.6-0.8-0.9-1.9-0.7-2.9
			c0.1-0.4,0.3-0.7,0.6-1c1.3-1.1,3.1-1.2,4.5-0.2c3.2,2.4,6.4,4.7,9.6,7.1c0.4,0.3,1,0.4,1.5,0.3c8-2.2,15.9-4.3,23.9-6.4
			c0.8-0.2,1.1-0.4,0.6-1.3c-3.7-6.3-7.4-12.6-11.1-19c-1.2-1.8-0.9-4.1,0.6-5.6c1.7-1.5,4.2-1.7,6.1-0.6c2.2,1.6,4.5,3.2,6.7,4.8
			c6.9,4.9,13.7,9.9,20.5,14.8c0.2,0.1,0.4,0.2,0.6,0.3c0.3,0.1,0.6,0,0.9-0.1c0.7-0.2,10.7-3.4,16.8-4c2-0.2,4-0.1,6,0.1
			C90,42.6,92.1,42.9,94.1,43.5z"/>
		<path class="st4" d="M94.1,33.5c2.3,0.7,5.5,1.5,5.9,3.4c0.2,1.3-1,2.5-1.4,3c-4.8,5-28.6,9.9-36.8,12.1
			c-6.1,1.6-35.2,9.6-44.1,11.8c-1.4,0.4-2.9,0.4-4.3-0.1c-1.9-0.7-2.7-2.2-3.9-4c-2.9-4.4-6-8.8-8.8-13.3c-0.6-0.8-0.9-1.9-0.7-2.9
			c0.1-0.4,0.3-0.7,0.6-1c1.3-1.1,3.1-1.2,4.5-0.2c3.2,2.4,6.4,4.7,9.6,7.1c0.4,0.3,1,0.4,1.5,0.3c8-2.2,15.9-4.3,23.9-6.4
			c0.8-0.2,1.1-0.4,0.6-1.3c-3.7-6.3-7.4-12.6-11.1-19c-1.2-1.8-0.9-4.1,0.6-5.6c1.7-1.5,4.2-1.7,6.1-0.6c2.2,1.6,4.5,3.2,6.7,4.8
			c6.9,4.9,13.7,9.9,20.5,14.8c0.2,0.1,0.4,0.2,0.6,0.3c0.3,0.1,0.6,0,0.9-0.1c0.7-0.2,10.7-3.4,16.8-4c2-0.2,4-0.1,6,0.1
			C90,32.6,92.1,32.9,94.1,33.5z"/>
	</g>
</mask>
<g id="Lines" style="mask:url(#Lines_00000106848113578197571020000010441189526399020727_);">
	<line class="st6" x1="2" y1="1.9" x2="48" y2="1.9"/>
	<line class="st6" x1="62" y1="1.9" x2="98" y2="1.9"/>
	<line class="st6" x1="2" y1="69.2" x2="48" y2="69.2"/>
	<line class="st6" x1="62" y1="69.2" x2="98" y2="69.2"/>
	<line class="st6" x1="2" y1="78.8" x2="18" y2="78.8"/>
	<line class="st6" x1="32" y1="78.8" x2="68" y2="78.8"/>
	<line class="st6" x1="2" y1="88.5" x2="58" y2="88.5"/>
	<line class="st6" x1="72" y1="88.5" x2="98" y2="88.5"/>
	<line class="st6" x1="2" y1="98.1" x2="28" y2="98.1"/>
	<line class="st6" x1="98" y1="98.1" x2="42" y2="98.1"/>
	<line class="st6" x1="2" y1="40.4" x2="48" y2="40.4"/>
	<line class="st6" x1="62" y1="40.4" x2="98" y2="40.4"/>
	<line class="st6" x1="32" y1="11.5" x2="98" y2="11.5"/>
	<line class="st6" x1="2" y1="11.5" x2="18" y2="11.5"/>
	<line class="st6" x1="2" y1="21.2" x2="48" y2="21.2"/>
	<line class="st6" x1="62" y1="21.2" x2="98" y2="21.2"/>
	<line class="st6" x1="32" y1="30.8" x2="78" y2="30.8"/>
	<line class="st6" x1="2" y1="30.8" x2="18" y2="30.8"/>
	<line class="st6" x1="32" y1="50" x2="78" y2="50"/>
	<line class="st6" x1="2" y1="50" x2="18" y2="50"/>
	<line class="st6" x1="32" y1="59.6" x2="88" y2="59.6"/>
	<line class="st6" x1="2" y1="59.6" x2="18" y2="59.6"/>
</g>
</svg>
