<svg xmlns="http://www.w3.org/2000/svg"
	xmlns:xlink="http://www.w3.org/1999/xlink" x="0px" y="0px" viewBox="0 0 100 100" style="enable-background:new 0 0 100 100;" xml:space="preserve">
	<path d="M5,62.2c0.1-1.1,0.7-2,1.6-2.6l21.1-13.2v-5.5c0-0.9,0.8-1.7,1.7-1.7h1.7c0.9,0,1.7,0.8,1.7,1.7v2.3l11-6.9V23.4
	c0-4.4,2-16.1,6.2-16.1s6.2,11.4,6.2,16.1v7.7L26.1,61.2L9.2,65.7C7,66.3,4.8,64.5,5,62.2z M93.4,59.6L72.3,46.4v-5.5
	c0-0.1,0-0.3-0.1-0.4L56.1,56.6l34.5,9.2c2.2,0.6,4.4-1.2,4.2-3.5C94.9,61.2,94.3,60.2,93.4,59.6z M67.5,87.2l-12-9.6
	c0.4-2.7,0.6-5.5,0.6-8.2V56.6L43.7,69v0.4c0,2.8,0.2,5.5,0.6,8.2l-12,9.6c-0.5,0.4-0.8,0.9-0.9,1.4c-0.3,1.6,1.2,3,2.8,2.5
	l12.6-3.8c0.5,1.4,1.1,2.9,1.7,4.3c0.3,0.6,0.8,0.9,1.4,0.9c0.6,0,1.2-0.4,1.4-0.9c0.6-1.4,1.2-2.8,1.7-4.3l12.6,3.8
	c1.6,0.5,3.1-0.9,2.8-2.5C68.3,88,68,87.5,67.5,87.2z M92.8,7.2c-1.6-1.6-4.1-1.6-5.7,0l-80,80c-1.6,1.6-1.6,4.1,0,5.7
	C8,93.6,9,94,10,94s2-0.4,2.8-1.2l80-80C94.4,11.3,94.4,8.7,92.8,7.2z" />
</svg>
