<svg xmlns="http://www.w3.org/2000/svg" xmlns:xlink="http://www.w3.org/1999/xlink" version="1.1" x="0px" y="0px" viewBox="0 0 100 100" style="enable-background:new 0 0 100 100;" xml:space="preserve"><path d="M93.4,59.6L72.3,46.4v-5.5c0-0.9-0.8-1.7-1.7-1.7h-1.7c-0.9,0-1.7,0.8-1.7,1.7v2.3l-11-6.9V23.4c0-4.7-2-16.1-6.2-16.1  S43.8,19,43.8,23.4v12.9l-11,6.9v-2.3c0-0.9-0.8-1.7-1.7-1.7h-1.7c-0.9,0-1.7,0.8-1.7,1.7v5.5L6.6,59.6c-0.9,0.6-1.5,1.5-1.6,2.6  c-0.2,2.3,2,4.1,4.2,3.5l34.5-9.2v12.9c0,2.8,0.2,5.5,0.6,8.2l-12,9.6c-0.5,0.4-0.8,0.9-0.9,1.4c-0.3,1.6,1.2,3,2.8,2.5l12.6-3.8  c0.5,1.4,1.1,2.9,1.7,4.3c0.3,0.6,0.8,0.9,1.4,0.9s1.2-0.4,1.4-0.9c0.6-1.4,1.2-2.8,1.7-4.3l12.6,3.8c1.6,0.5,3.1-0.9,2.8-2.5  c-0.1-0.6-0.4-1.1-0.9-1.4l-12-9.6c0.4-2.7,0.6-5.5,0.6-8.2V56.6l34.5,9.2c2.2,0.6,4.4-1.2,4.2-3.5C94.9,61.2,94.3,60.2,93.4,59.6z"></path></svg>